<?xml version="1.0" standalone="no"?>
<!DOCTYPE svg PUBLIC "-//W3C//DTD SVG 20010904//EN"
 "http://www.w3.org/TR/2001/REC-SVG-20010904/DTD/svg10.dtd">
<svg version="1.0" xmlns="http://www.w3.org/2000/svg"
 width="564.000000pt" height="564.000000pt" viewBox="0 0 564.000000 564.000000"
 preserveAspectRatio="xMidYMid meet">

<g transform="translate(0.000000,564.000000) scale(0.100000,-0.100000)"
fill="#000000" stroke="none">
<path d="M2673 4783 c-169 -346 -595 -1208 -598 -1211 -2 -2 -95 -17 -207 -33
-619 -91 -1043 -152 -1203 -175 -99 -14 -182 -27 -184 -30 -9 -9 59 -3 184 15
72 11 148 22 170 25 22 3 74 10 115 16 41 6 89 13 105 15 17 2 62 9 100 15 39
5 117 17 175 25 58 8 134 19 170 25 36 6 110 17 165 24 55 8 172 24 259 37
l159 24 172 350 c95 192 254 516 354 719 100 203 180 373 179 378 -2 5 -54
-93 -115 -219z"/>
<path d="M2826 4996 c3 -9 11 -16 16 -16 13 0 5 23 -10 28 -7 2 -10 -2 -6 -12z"/>
<path d="M2692 4683 c-17 -54 -52 -181 -77 -283 -119 -477 -198 -690 -303
-820 -87 -106 -154 -141 -285 -146 -116 -5 -456 -24 -522 -29 -27 -2 -106 -9
-175 -15 -69 -6 -204 -17 -300 -24 l-175 -14 375 3 c421 4 753 20 850 40 113
23 172 51 232 109 31 30 59 64 63 75 3 12 10 21 15 21 4 0 18 21 30 47 12 27
31 59 41 72 28 36 94 250 124 401 14 74 35 173 47 220 11 47 25 108 30 135 6
28 24 106 39 174 16 68 28 126 26 128 -2 2 -18 -41 -35 -94z"/>
<path d="M2894 4765 c3 -11 12 -54 21 -95 9 -41 32 -138 50 -215 18 -77 48
-207 65 -288 40 -187 94 -351 160 -491 84 -179 184 -261 350 -286 30 -5 201
-14 380 -20 179 -6 386 -15 460 -20 172 -13 517 -12 475 1 -16 5 -95 13 -175
19 -80 6 -197 15 -260 21 -63 5 -171 14 -240 19 -69 5 -186 16 -260 24 -74 9
-184 20 -244 26 -128 13 -206 44 -206 83 0 16 -3 18 -9 8 -6 -9 -9 -7 -9 10 0
30 -143 330 -154 323 -4 -3 -5 3 -1 12 5 13 3 15 -7 9 -8 -5 -11 -4 -7 2 6 10
-67 173 -83 183 -4 3 -31 66 -60 140 -28 74 -75 194 -103 265 -47 122 -117
269 -117 249 -1 -5 -7 2 -16 16 -11 19 -14 20 -10 5z m180 -456 c41 -112 97
-266 125 -342 29 -76 53 -151 55 -165 2 -15 7 -51 11 -81 7 -44 5 -53 -6 -49
-8 2 -15 18 -17 34 -7 70 -123 391 -160 444 -10 14 -24 57 -31 95 -13 68 -54
243 -66 281 -5 16 -5 16 4 3 5 -8 43 -107 85 -220z m104 -464 c0 -5 -6 4 -13
20 -8 17 -14 37 -14 45 0 8 7 -1 14 -20 7 -19 13 -39 13 -45z m191 -115 c18
-41 41 -92 51 -112 30 -64 1 -30 -34 41 -33 65 -86 189 -86 200 0 12 37 -57
69 -129z"/>
<path d="M2376 4043 c-6 -14 -5 -15 5 -6 7 7 10 15 7 18 -3 3 -9 -2 -12 -12z"/>
<path d="M3286 4027 c3 -10 9 -15 12 -12 3 3 0 11 -7 18 -10 9 -11 8 -5 -6z"/>
<path d="M2356 4005 c-9 -26 -7 -32 5 -12 6 10 9 21 6 23 -2 3 -7 -2 -11 -11z"/>
<path d="M3281 3990 c14 -31 19 -36 19 -24 0 6 -7 19 -16 30 -14 18 -14 18 -3
-6z"/>
<path d="M2232 3753 c-80 -163 -113 -221 -132 -230 -19 -10 -21 -13 -7 -13 10
0 29 12 42 26 16 17 25 22 25 13 1 -17 42 48 74 116 37 78 87 187 102 223 24
55 4 35 -23 -24 -14 -30 -27 -53 -30 -50 -3 3 11 39 30 81 20 41 34 75 31 75
-2 0 -53 -98 -112 -217z m7 -45 c-47 -101 -79 -158 -79 -144 0 16 113 246 118
241 3 -2 -15 -46 -39 -97z"/>
<path d="M2356 3955 c-9 -26 -7 -32 5 -12 6 10 9 21 6 23 -2 3 -7 -2 -11 -11z"/>
<path d="M3311 3930 c14 -31 19 -36 19 -24 0 6 -7 19 -16 30 -14 18 -14 18 -3
-6z"/>
<path d="M3330 3887 c0 -4 25 -60 56 -125 31 -64 67 -140 80 -169 24 -53 49
-76 94 -87 14 -3 9 1 -11 10 -33 14 -43 30 -118 182 -82 168 -101 203 -101
189z"/>
<path d="M3560 3561 c0 -6 3 -11 8 -11 4 0 36 -5 72 -10 36 -5 85 -12 110 -15
25 -3 52 -7 60 -10 8 -2 40 -7 70 -10 30 -3 62 -8 70 -10 8 -3 33 -7 55 -10
46 -5 184 -24 235 -31 19 -3 43 -7 52 -10 10 -3 35 -7 55 -9 21 -2 72 -9 113
-15 41 -6 93 -13 115 -16 22 -2 69 -9 105 -15 36 -6 83 -13 105 -15 72 -9 100
-13 100 -14 0 -1 14 -4 30 -5 17 -2 62 -8 100 -14 72 -11 132 -14 124 -7 -2 2
-85 16 -184 30 -99 14 -367 53 -595 86 -228 34 -494 72 -590 86 -96 13 -183
27 -192 30 -10 3 -18 1 -18 -5z"/>
<path d="M2038 3503 c6 -2 18 -2 25 0 6 3 1 5 -13 5 -14 0 -19 -2 -12 -5z"/>
<path d="M470 3294 c0 -6 44 -53 98 -104 53 -52 266 -258 471 -459 206 -202
419 -409 473 -461 111 -108 109 -101 82 -250 -8 -47 -26 -148 -39 -225 -27
-161 -109 -635 -160 -933 -19 -112 -35 -209 -35 -214 0 -27 11 4 20 53 5 30
20 117 34 194 27 158 122 711 137 795 5 30 11 66 14 80 3 14 10 52 15 85 10
67 27 167 35 205 3 14 8 45 11 70 l6 45 -144 140 c-78 77 -288 281 -465 453
-179 175 -320 319 -317 326 3 7 -3 19 -13 26 -15 12 -16 12 -5 0 6 -8 12 -19
12 -24 0 -6 -28 16 -62 49 -142 136 -168 159 -168 149z"/>
<path d="M5090 3290 c-20 -13 -69 -26 -208 -56 -173 -36 -286 -66 -293 -77 -4
-5 -13 -7 -20 -5 -8 3 -20 -2 -28 -9 -7 -8 -20 -12 -27 -9 -8 3 -14 2 -14 -2
0 -13 -126 -53 -147 -46 -15 5 -15 4 -3 -5 10 -7 11 -11 3 -11 -7 0 -88 -31
-179 -70 -92 -38 -171 -67 -177 -63 -6 3 -7 2 -4 -4 7 -11 -109 -67 -123 -58
-5 3 -18 1 -27 -5 -15 -9 -14 -10 7 -4 36 10 24 0 -65 -49 -132 -73 -254 -163
-360 -266 -93 -90 -177 -160 -245 -204 -74 -47 -301 -73 -493 -56 -126 11
-228 32 -258 52 -22 16 -101 88 -227 205 -90 85 -265 221 -283 222 -4 0 -37
18 -74 40 -63 39 -146 79 -385 185 -94 41 -107 50 -45 31 11 -3 -2 4 -30 17
-76 36 -277 102 -432 141 -220 57 -436 107 -440 102 -2 -2 19 -13 47 -25 28
-12 53 -28 56 -36 7 -16 78 -65 96 -65 7 0 64 -32 125 -70 107 -67 202 -120
428 -240 127 -68 236 -133 300 -180 68 -51 158 -147 184 -198 22 -44 28 -97
11 -107 -6 -4 -8 -11 -5 -16 4 -5 -2 -9 -12 -10 -15 0 -14 -2 5 -11 19 -9 28
-8 50 9 24 18 27 27 26 71 -2 77 -60 161 -185 268 -54 46 -158 107 -336 198
-244 123 -293 150 -293 158 0 15 249 -93 322 -139 21 -13 38 -20 38 -17 0 3
12 -2 27 -11 15 -10 52 -32 83 -49 83 -46 185 -123 259 -196 69 -67 141 -151
141 -164 0 -5 8 -20 19 -34 23 -34 46 -107 62 -198 10 -63 9 -82 -11 -184 -23
-114 -44 -180 -58 -180 -4 0 -24 39 -44 87 -31 72 -35 90 -25 103 24 28 67
142 67 176 0 30 -46 62 -106 74 -67 14 -94 29 -218 120 -49 36 -93 64 -98 62
-5 -1 -53 35 -106 81 -54 45 -130 110 -171 142 -41 33 -104 84 -140 113 -36
29 -75 63 -87 75 -11 12 -44 42 -74 67 -29 25 -67 57 -85 72 -18 15 -35 25
-38 22 -3 -3 -10 4 -17 15 -6 12 -15 21 -21 21 -5 0 -2 -11 7 -26 10 -14 23
-23 31 -20 8 3 11 2 8 -4 -6 -10 46 -61 165 -160 113 -96 160 -142 153 -153
-4 -6 -1 -7 6 -2 8 5 31 -10 64 -42 29 -27 67 -62 85 -76 19 -15 30 -27 26
-27 -4 0 12 -14 35 -30 23 -17 39 -35 36 -39 -2 -5 1 -8 9 -7 18 2 306 -267
327 -305 4 -9 5 -38 0 -65 -42 -246 -104 -597 -111 -629 -5 -22 -9 -51 -9 -65
1 -29 29 102 59 275 11 66 35 194 54 285 31 155 34 163 46 137 10 -20 11 -33
3 -50 -22 -45 -104 -430 -153 -712 -7 -38 -18 -94 -25 -123 -7 -29 -9 -55 -5
-57 4 -3 13 23 19 58 15 78 41 186 51 212 6 16 51 193 85 336 20 87 49 179 56
179 13 0 38 -65 45 -119 4 -31 0 -75 -11 -122 -16 -72 -26 -97 -140 -349 -31
-69 -66 -149 -77 -179 -15 -38 -23 -50 -29 -40 -7 12 -9 11 -9 -1 -2 -44 -40
-234 -48 -239 -11 -7 -52 -162 -45 -173 2 -4 13 2 23 12 11 11 24 20 29 20 13
0 58 44 109 106 41 50 52 72 32 59 -6 -3 -7 1 -3 10 4 11 8 13 13 5 5 -8 11
-6 20 5 11 13 11 18 1 24 -9 6 -8 11 4 21 13 11 14 10 9 -5 -16 -40 18 0 93
113 78 115 143 224 143 239 0 5 -11 -10 -25 -32 -31 -51 -33 -40 -2 14 13 23
26 39 29 36 3 -3 8 1 12 10 3 9 2 13 -4 10 -6 -3 -7 1 -4 9 3 9 9 14 13 12 4
-3 7 3 8 12 0 9 8 46 18 82 14 53 17 89 12 195 -4 86 -1 169 8 245 19 147 19
203 -1 297 -49 239 -229 441 -536 603 -116 61 -412 195 -538 244 -52 20 -117
48 -145 61 -27 14 -68 32 -89 40 -71 28 -29 27 56 -1 418 -136 593 -208 806
-330 279 -159 428 -323 508 -557 23 -69 45 -198 64 -384 22 -225 60 -245 340
-178 80 19 183 40 230 46 110 15 301 5 406 -20 156 -38 332 -120 447 -208 82
-63 243 -219 324 -315 36 -42 70 -76 76 -75 5 1 24 -23 42 -53 37 -65 49 -93
35 -85 -6 3 -7 -1 -4 -9 3 -9 9 -14 13 -11 4 2 41 -75 81 -171 41 -97 81 -184
90 -194 36 -43 46 -56 63 -80 15 -22 17 -22 17 -5 0 11 -5 36 -10 55 -6 19
-13 71 -15 114 -3 44 -10 109 -16 145 -6 36 -12 77 -14 91 -7 46 -65 394 -75
450 -30 160 -110 661 -110 685 0 24 84 111 550 574 312 310 551 553 550 563 0
12 -6 16 -17 12 -17 -5 -17 -5 0 6 17 11 23 30 10 30 -5 0 -15 -5 -23 -10z
m-50 -75 c-13 -14 -21 -25 -17 -25 4 0 -14 -19 -39 -42 -25 -23 -43 -47 -40
-54 3 -8 0 -11 -10 -7 -8 3 -14 2 -13 -3 3 -20 -2 -34 -12 -34 -5 0 -7 5 -3
12 4 7 3 8 -5 4 -6 -4 -10 -13 -9 -20 3 -14 -252 -273 -264 -268 -5 1 -7 -2
-6 -6 2 -5 -21 -31 -49 -59 -29 -29 -53 -50 -53 -49 0 1 -57 -55 -127 -125
-69 -71 -131 -125 -136 -122 -6 3 -7 2 -4 -4 7 -11 -143 -159 -158 -155 -5 2
-7 0 -2 -4 4 -4 -13 -29 -38 -54 -26 -26 -53 -65 -61 -86 l-15 -39 7 35 c3 19
6 44 7 55 0 13 160 180 456 475 252 250 400 399 329 331 -70 -68 -131 -121
-134 -118 -4 4 -1 15 7 24 13 16 12 17 -4 4 -9 -7 -16 -20 -15 -27 3 -14 -159
-184 -174 -184 -14 0 -9 6 75 91 46 46 81 82 78 81 -3 -2 -53 -47 -111 -100
-57 -54 -122 -113 -143 -132 -21 -19 -53 -49 -70 -65 -34 -32 -193 -172 -215
-190 -50 -38 -133 -126 -142 -149 -8 -21 -4 -55 15 -149 29 -146 165 -864 165
-874 0 -3 2 -4 6 -1 3 3 -6 66 -20 139 -14 74 -43 241 -66 372 -23 131 -50
284 -61 340 -31 165 -42 141 147 322 309 296 328 314 334 309 3 -3 -50 -58
-117 -122 -267 -256 -373 -363 -373 -378 0 -9 5 -12 11 -8 9 5 10 -3 5 -28 -7
-37 10 -135 26 -155 5 -7 7 -22 3 -35 -5 -17 -4 -19 4 -8 5 8 13 11 17 7 4 -3
2 -12 -3 -19 -13 -16 -13 -48 0 -45 5 1 12 -4 14 -10 3 -7 0 -13 -6 -13 -16 0
-14 -44 3 -85 8 -19 13 -35 10 -35 -3 0 -2 -6 3 -12 4 -7 6 -21 4 -32 -2 -12
1 -16 10 -11 7 5 10 4 6 -2 -4 -6 -2 -33 4 -59 6 -27 11 -60 11 -74 0 -14 4
-28 10 -31 7 -4 7 -13 0 -24 -11 -21 -4 -58 9 -49 6 3 7 -8 4 -26 -4 -23 -2
-30 6 -24 9 5 10 2 6 -10 -4 -10 -3 -25 2 -34 7 -14 18 -93 24 -174 1 -10 4
-18 7 -18 3 0 6 -8 7 -17 3 -36 16 -123 26 -168 4 -16 9 -47 11 -67 3 -20 10
-56 16 -78 11 -41 6 -71 -6 -34 -3 10 -12 35 -20 54 -8 19 -19 59 -24 89 -6
30 -16 59 -24 65 -7 6 -22 25 -32 41 -14 23 -15 27 -3 18 13 -11 15 -8 11 20
-2 17 -11 39 -19 48 -13 15 -42 87 -78 194 -7 22 -34 117 -60 210 -25 94 -66
229 -91 300 -81 229 -95 284 -96 370 -2 140 50 257 167 376 130 132 285 229
746 463 124 63 259 135 300 160 40 25 76 46 78 46 2 0 -6 -11 -19 -25z m-3695
-173 c-3 -3 -11 0 -18 7 -9 10 -8 11 6 5 10 -3 15 -9 12 -12z m2675 -336 c0
-2 -8 -10 -17 -17 -16 -13 -17 -12 -4 4 13 16 21 21 21 13z m-55 -46 c-10 -11
-21 -18 -23 -15 -3 3 3 12 14 20 27 20 30 18 9 -5z m-79 -74 c-129 -129 -190
-318 -157 -487 14 -71 8 -91 -10 -28 -15 59 -13 210 5 270 24 78 72 161 138
233 33 37 63 65 65 62 2 -2 -16 -25 -41 -50z m124 -567 c0 -6 -4 -7 -10 -4 -5
3 -10 11 -10 16 0 6 5 7 10 4 6 -3 10 -11 10 -16z m-910 -114 c313 -33 379
-63 600 -275 138 -131 189 -175 204 -174 10 1 19 -23 30 -80 19 -94 20 -116 6
-116 -15 0 -74 63 -189 204 -221 269 -376 358 -700 400 -224 29 -378 18 -619
-44 -154 -40 -216 -38 -241 8 -10 19 -9 19 31 5 33 -11 52 -12 97 -2 110 22
186 41 220 55 20 8 72 14 130 15 53 0 105 4 116 9 20 9 208 6 315 -5z m950
-118 c0 -5 -4 -5 -10 -2 -5 3 -10 14 -10 23 0 15 2 15 10 2 5 -8 10 -19 10
-23z m-2140 -122 c23 -123 17 -142 -112 -342 -64 -98 -127 -198 -140 -223 -14
-25 -44 -79 -66 -121 -77 -140 -93 -123 -44 42 16 52 49 144 74 204 43 104
228 476 250 502 17 21 25 7 38 -62z m1480 25 c33 -17 60 -33 60 -35 0 -5 -119
52 -129 61 -13 12 16 1 69 -26z m127 -76 c57 -43 206 -184 195 -184 -4 0 -30
23 -57 51 -28 28 -79 74 -115 102 -82 64 -85 67 -77 67 4 0 28 -16 54 -36z
m593 -154 c0 -5 -2 -10 -4 -10 -3 0 -8 5 -11 10 -3 6 -1 10 4 10 6 0 11 -4 11
-10z m-350 -75 c19 -19 32 -35 29 -35 -3 0 -20 16 -39 35 -19 19 -32 35 -29
35 3 0 20 -16 39 -35z m61 -62 c13 -17 13 -17 -6 -3 -11 8 -22 16 -24 17 -2 2
0 3 6 3 6 0 17 -8 24 -17z m45 -54 c16 -16 22 -28 14 -24 -13 5 -56 55 -47 55
2 0 16 -14 33 -31z m45 -56 c13 -16 12 -17 -3 -4 -10 7 -18 15 -18 17 0 8 8 3
21 -13z m-2127 -35 c-9 -17 -85 -120 -97 -133 -18 -19 6 19 52 83 41 57 63 80
45 50z m2328 -222 c35 -70 105 -302 95 -313 -5 -5 -71 140 -117 259 -69 177
-56 209 22 54z"/>
<path d="M4235 2549 c-4 -6 -5 -12 -2 -15 2 -3 7 2 10 11 7 17 1 20 -8 4z"/>
<path d="M4198 2516 c-19 -14 -23 -26 -10 -26 4 0 13 9 20 20 14 23 13 24 -10
6z"/>
<path d="M4137 2467 c-14 -12 -57 -44 -94 -71 -191 -140 -207 -190 -135 -431
22 -71 45 -155 51 -185 54 -247 93 -411 97 -407 2 2 -3 37 -11 78 -8 41 -35
184 -61 319 -25 135 -55 272 -65 305 -24 76 -24 132 0 170 16 27 87 94 169
161 62 50 86 73 81 78 -3 3 -17 -5 -32 -17z"/>
<path d="M4061 1324 c0 -11 3 -14 6 -6 3 7 2 16 -1 19 -3 4 -6 -2 -5 -13z"/>
<path d="M1460 3006 c14 -7 36 -16 50 -20 19 -5 16 -2 -10 13 -19 11 -42 20
-50 20 -8 0 -4 -6 10 -13z"/>
<path d="M1570 2960 c8 -5 20 -10 25 -10 6 0 3 5 -5 10 -8 5 -19 10 -25 10 -5
0 -3 -5 5 -10z"/>
<path d="M1670 2915 c14 -8 30 -14 35 -14 6 0 -1 6 -15 14 -14 8 -29 14 -35
14 -5 0 1 -6 15 -14z"/>
<path d="M1721 2896 c2 -2 15 -9 29 -15 24 -11 24 -11 6 3 -16 13 -49 24 -35
12z"/>
<path d="M1825 2842 c17 -10 62 -36 100 -57 95 -52 197 -130 335 -253 149
-134 231 -178 362 -193 222 -27 369 -17 492 32 101 40 170 86 278 186 46 43
126 107 176 141 51 35 92 65 92 68 0 7 -178 -110 -222 -147 -23 -18 -72 -60
-108 -92 -133 -118 -258 -159 -485 -161 -295 -2 -406 33 -570 179 -16 15 -46
39 -65 54 -19 14 -37 29 -40 32 -3 3 -30 23 -60 44 -30 21 -68 48 -85 60 -36
27 -211 125 -222 125 -5 0 6 -8 22 -18z"/>
<path d="M3698 2794 c-38 -20 -36 -28 2 -9 17 9 30 18 30 20 0 7 -1 6 -32 -11z"/>
<path d="M3272 2509 c-42 -31 -57 -48 -24 -29 23 13 78 60 71 60 -3 0 -24 -14
-47 -31z"/>
<path d="M2350 2496 c0 -2 12 -12 28 -21 l27 -18 -19 21 c-17 20 -36 29 -36
18z"/>
<path d="M3150 2440 c-36 -16 -60 -29 -53 -30 16 0 123 47 123 54 0 7 7 10
-70 -24z"/>
<path d="M2434 2446 c52 -43 257 -71 459 -63 78 2 153 10 167 16 22 10 21 11
-15 6 -221 -30 -435 -12 -610 50 -20 6 -20 6 -1 -9z"/>
<path d="M2141 1595 c-67 -23 -91 -44 -91 -79 0 -18 4 -16 30 12 16 18 55 44
85 58 30 14 55 27 55 30 0 6 -9 4 -79 -21z"/>
<path d="M2027 1487 c-4 -10 -7 -26 -7 -35 1 -15 2 -15 11 1 6 10 9 25 7 35
-3 16 -4 15 -11 -1z"/>
<path d="M1552 1390 c0 -14 2 -19 5 -12 2 6 2 18 0 25 -3 6 -5 1 -5 -13z"/>
<path d="M1971 1363 c-10 -26 -10 -27 4 -9 8 11 15 23 15 28 0 15 -7 8 -19
-19z"/>
<path d="M2682 1309 c-68 -39 -121 -73 -119 -75 2 -2 58 25 124 61 66 36 130
65 141 65 19 0 112 -45 317 -155 44 -23 184 -98 310 -165 127 -67 246 -132
265 -143 96 -55 105 -60 90 -44 -16 17 -249 154 -530 312 -96 54 -193 111
-215 125 -63 43 -180 90 -222 90 -29 0 -67 -17 -161 -71z"/>
<path d="M1542 1335 c0 -16 2 -22 5 -12 2 9 2 23 0 30 -3 6 -5 -1 -5 -18z"/>
<path d="M3043 1353 c10 -10 93 -61 182 -111 39 -22 104 -63 146 -90 83 -54
119 -75 119 -69 0 7 -218 150 -312 206 -84 49 -152 81 -135 64z"/>
<path d="M2675 1271 c-71 -37 -149 -78 -173 -91 -24 -12 -45 -20 -48 -17 -3 3
17 17 45 33 28 15 49 29 47 31 -2 3 -40 -16 -83 -41 -43 -25 -72 -46 -65 -46
7 0 10 -4 7 -10 -3 -5 -4 -10 -1 -10 5 0 189 95 313 161 40 22 86 39 102 39
38 0 48 14 13 17 -17 1 -78 -25 -157 -66z m-235 -121 c-8 -5 -19 -10 -25 -10
-5 0 -3 5 5 10 8 5 20 10 25 10 6 0 3 -5 -5 -10z"/>
<path d="M1531 1274 c0 -11 3 -14 6 -6 3 7 2 16 -1 19 -3 4 -6 -2 -5 -13z"/>
<path d="M2615 1186 c-110 -56 -258 -133 -330 -171 -395 -205 -613 -314 -619
-308 -3 3 -6 1 -6 -6 0 -8 -6 -11 -17 -7 -10 4 -14 4 -10 0 9 -10 -43 -35 -56
-27 -5 3 -7 1 -4 -4 4 -6 0 -14 -9 -17 -9 -4 -13 -2 -8 5 7 13 -37 2 -46 -11
-3 -4 -16 -11 -28 -15 -22 -7 -62 -39 -62 -50 0 -3 7 -5 16 -5 16 0 525 257
844 425 91 48 251 132 357 187 l192 99 36 -15 c32 -14 124 -61 600 -311 376
-198 735 -379 740 -374 2 2 -74 44 -168 92 -335 172 -330 169 -315 179 9 7 7
8 -7 4 -11 -3 -33 1 -49 9 -134 70 -334 174 -391 205 -79 42 -307 162 -375
197 -25 13 -54 23 -65 23 -11 0 -110 -47 -220 -104z"/>
<path d="M1906 1253 c-6 -14 -5 -15 5 -6 7 7 10 15 7 18 -3 3 -9 -2 -12 -12z"/>
<path d="M1511 1164 c0 -11 3 -14 6 -6 3 7 2 16 -1 19 -3 4 -6 -2 -5 -13z"/>
<path d="M3920 1176 c0 -8 42 -76 46 -76 3 0 -5 18 -16 40 -18 35 -30 49 -30
36z"/>
<path d="M2348 1124 c-38 -20 -36 -28 2 -9 17 9 30 18 30 20 0 7 -1 6 -32 -11z"/>
<path d="M2328 1089 c-32 -16 -58 -32 -58 -34 0 -3 27 8 60 25 33 17 60 32 60
35 0 7 2 8 -62 -26z"/>
<path d="M3976 1077 c3 -10 9 -15 12 -12 3 3 0 11 -7 18 -10 9 -11 8 -5 -6z"/>
<path d="M2188 1014 c-38 -19 -68 -37 -68 -39 0 -3 32 11 70 30 39 19 70 37
70 40 0 7 3 8 -72 -31z"/>
<path d="M2065 950 c-3 -6 1 -7 9 -4 18 7 21 14 7 14 -6 0 -13 -4 -16 -10z"/>
<path d="M2030 930 c-9 -6 -10 -10 -3 -10 6 0 15 5 18 10 8 12 4 12 -15 0z"/>
<path d="M1990 910 c-9 -6 -10 -10 -3 -10 6 0 15 5 18 10 8 12 4 12 -15 0z"/>
<path d="M1950 890 c-9 -6 -10 -10 -3 -10 6 0 15 5 18 10 8 12 4 12 -15 0z"/>
<path d="M1800 810 c-9 -6 -10 -10 -3 -10 6 0 15 5 18 10 8 12 4 12 -15 0z"/>
<path d="M1391 627 c-26 -42 -36 -47 -26 -14 6 17 4 19 -5 11 -17 -17 -8 -68
13 -72 9 -2 17 2 17 8 0 6 -4 8 -10 5 -22 -13 4 41 29 61 8 6 12 17 9 24 -2 8
-13 -1 -27 -23z"/>
</g>
</svg>
